<svg width="22" height="20" viewBox="0 0 22 20" fill="none" xmlns="http://www.w3.org/2000/svg">
<path d="M4.61302 19.7334C3.51049 19.7335 2.45212 19.3001 1.66635 18.5267L1.57969 18.4401C1.18489 18.0548 0.871195 17.5945 0.657088 17.0861C0.442982 16.5777 0.332795 16.0317 0.33302 15.48C0.331625 14.8829 0.448758 14.2913 0.677633 13.7398C0.906508 13.1882 1.24257 12.6875 1.66635 12.2667L11.9997 2.04672C13.0496 0.953561 14.4869 0.316551 16.0019 0.272907C17.517 0.229264 18.9886 0.782479 20.0997 1.81338C20.6008 2.31325 20.9974 2.90786 21.2664 3.56255C21.5353 4.21725 21.6713 4.91894 21.6664 5.62672C21.6604 6.41719 21.4983 7.19869 21.1894 7.92633C20.8805 8.65397 20.4309 9.31339 19.8664 9.86672L10.5797 19.0667C10.522 19.1444 10.448 19.2085 10.363 19.2547C10.278 19.3009 10.1839 19.3281 10.0874 19.3343C9.99081 19.3405 9.89406 19.3256 9.80383 19.2906C9.7136 19.2557 9.63207 19.2015 9.56488 19.1319C9.4977 19.0622 9.44648 18.9788 9.41478 18.8874C9.38308 18.796 9.37167 18.6987 9.38132 18.6025C9.39097 18.5062 9.42147 18.4132 9.47069 18.3299C9.51991 18.2465 9.58668 18.175 9.66635 18.1201L18.9264 8.92005C19.3661 8.49077 19.7168 7.97885 19.9582 7.41369C20.1996 6.84852 20.327 6.24124 20.333 5.62672C20.3378 5.09488 20.2366 4.56742 20.0351 4.0752C19.8336 3.58298 19.536 3.13587 19.1597 2.76005C18.2982 1.97529 17.1631 1.56006 15.9986 1.6037C14.8342 1.64734 13.7333 2.14635 12.933 2.99338L2.63302 13.2134C2.32949 13.5081 2.08769 13.8603 1.92173 14.2495C1.75576 14.6387 1.66895 15.057 1.66635 15.48C1.66493 15.8515 1.73727 16.2196 1.87917 16.5629C2.02108 16.9062 2.22973 17.218 2.49302 17.48L2.57969 17.5667C3.17619 18.116 3.96452 18.4091 4.77498 18.3829C5.58544 18.3567 6.35322 18.0134 6.91302 17.4267L15.813 8.62672C15.9813 8.45654 16.114 8.2545 16.2033 8.03243C16.2926 7.81036 16.3367 7.57271 16.333 7.33338C16.3345 7.12552 16.2946 6.91944 16.2156 6.72715C16.1366 6.53486 16.0202 6.36022 15.873 6.21338C15.5363 5.90466 15.0918 5.7407 14.6353 5.75692C14.1788 5.77313 13.7469 5.96821 13.433 6.30005L7.29969 12.38C7.17415 12.5047 7.00424 12.5744 6.82733 12.5738C6.65042 12.5731 6.481 12.5023 6.35635 12.3767C6.2317 12.2512 6.16202 12.0813 6.16265 11.9044C6.16327 11.7275 6.23415 11.558 6.35969 11.4334L12.5197 5.33338C13.0843 4.75493 13.8538 4.42165 14.6619 4.40543C15.4701 4.38922 16.2523 4.69138 16.8397 5.24672C17.1098 5.52171 17.3221 5.84803 17.4641 6.20642C17.6061 6.5648 17.6749 6.94799 17.6664 7.33338C17.6656 7.7484 17.5821 8.1591 17.4207 8.54144C17.2593 8.92378 17.0233 9.27007 16.7264 9.56005L7.85302 18.3867C6.99295 19.2454 5.82838 19.7295 4.61302 19.7334Z" fill="#727A8B"/>
</svg>
