<svg width="20" height="20" viewBox="0 0 20 20" fill="none" xmlns="http://www.w3.org/2000/svg">
<path d="M1.91095 9.28189H8.13317C8.81762 9.28189 9.37761 8.63574 9.37761 7.84599V2.1024C9.37761 1.31266 8.81762 0.666504 8.13317 0.666504H1.91095C1.2265 0.666504 0.666504 1.31266 0.666504 2.1024V7.84599C0.666504 8.63574 1.2265 9.28189 1.91095 9.28189ZM1.91095 19.3332H8.13317C8.81762 19.3332 9.37761 18.687 9.37761 17.8973V12.1537C9.37761 11.3639 8.81762 10.7178 8.13317 10.7178H1.91095C1.2265 10.7178 0.666504 11.3639 0.666504 12.1537V17.8973C0.666504 18.687 1.2265 19.3332 1.91095 19.3332ZM11.8665 19.3332H18.0887C18.7732 19.3332 19.3332 18.687 19.3332 17.8973V12.1537C19.3332 11.3639 18.7732 10.7178 18.0887 10.7178H11.8665C11.1821 10.7178 10.6221 11.3639 10.6221 12.1537V17.8973C10.6221 18.687 11.1821 19.3332 11.8665 19.3332ZM11.8665 9.28189H18.0887C18.7732 9.28189 19.3332 8.63574 19.3332 7.84599V2.1024C19.3332 1.31266 18.7732 0.666504 18.0887 0.666504H11.8665C11.1821 0.666504 10.6221 1.31266 10.6221 2.1024V7.84599C10.6221 8.63574 11.1821 9.28189 11.8665 9.28189Z" fill="#5141A4"/>
</svg>
