<svg width="20" height="20" viewBox="0 0 20 20" fill="none" xmlns="http://www.w3.org/2000/svg">
<path d="M1.91095 9.28213H8.13317C8.81762 9.28213 9.37761 8.63598 9.37761 7.84624V2.10265C9.37761 1.3129 8.81762 0.666748 8.13317 0.666748H1.91095C1.2265 0.666748 0.666504 1.3129 0.666504 2.10265V7.84624C0.666504 8.63598 1.2265 9.28213 1.91095 9.28213ZM1.91095 19.3334H8.13317C8.81762 19.3334 9.37761 18.6873 9.37761 17.8975V12.1539C9.37761 11.3642 8.81762 10.718 8.13317 10.718H1.91095C1.2265 10.718 0.666504 11.3642 0.666504 12.1539V17.8975C0.666504 18.6873 1.2265 19.3334 1.91095 19.3334ZM11.8665 19.3334H18.0887C18.7732 19.3334 19.3332 18.6873 19.3332 17.8975V12.1539C19.3332 11.3642 18.7732 10.718 18.0887 10.718H11.8665C11.1821 10.718 10.6221 11.3642 10.6221 12.1539V17.8975C10.6221 18.6873 11.1821 19.3334 11.8665 19.3334ZM11.8665 9.28213H18.0887C18.7732 9.28213 19.3332 8.63598 19.3332 7.84624V2.10265C19.3332 1.3129 18.7732 0.666748 18.0887 0.666748H11.8665C11.1821 0.666748 10.6221 1.3129 10.6221 2.10265V7.84624C10.6221 8.63598 11.1821 9.28213 11.8665 9.28213Z" fill="#D0D3D8"/>
</svg>
