<svg width="23" height="20" viewBox="0 0 23 20" fill="none" xmlns="http://www.w3.org/2000/svg">
<path d="M1.33333 12.6667H4C4.73333 12.6667 5.33333 12.0667 5.33333 11.3334V8.66675C5.33333 7.93341 4.73333 7.33342 4 7.33342H1.33333C0.6 7.33342 0 7.93341 0 8.66675V11.3334C0 12.0667 0.6 12.6667 1.33333 12.6667ZM1.33333 19.3334H4C4.73333 19.3334 5.33333 18.7334 5.33333 18.0001V15.3334C5.33333 14.6001 4.73333 14.0001 4 14.0001H1.33333C0.6 14.0001 0 14.6001 0 15.3334V18.0001C0 18.7334 0.6 19.3334 1.33333 19.3334ZM1.33333 6.00008H4C4.73333 6.00008 5.33333 5.40008 5.33333 4.66675V2.00008C5.33333 1.26675 4.73333 0.666748 4 0.666748H1.33333C0.6 0.666748 0 1.26675 0 2.00008V4.66675C0 5.40008 0.6 6.00008 1.33333 6.00008ZM8 12.6667H21.3333C22.0667 12.6667 22.6667 12.0667 22.6667 11.3334V8.66675C22.6667 7.93341 22.0667 7.33342 21.3333 7.33342H8C7.26667 7.33342 6.66667 7.93341 6.66667 8.66675V11.3334C6.66667 12.0667 7.26667 12.6667 8 12.6667ZM8 19.3334H21.3333C22.0667 19.3334 22.6667 18.7334 22.6667 18.0001V15.3334C22.6667 14.6001 22.0667 14.0001 21.3333 14.0001H8C7.26667 14.0001 6.66667 14.6001 6.66667 15.3334V18.0001C6.66667 18.7334 7.26667 19.3334 8 19.3334ZM6.66667 2.00008V4.66675C6.66667 5.40008 7.26667 6.00008 8 6.00008H21.3333C22.0667 6.00008 22.6667 5.40008 22.6667 4.66675V2.00008C22.6667 1.26675 22.0667 0.666748 21.3333 0.666748H8C7.26667 0.666748 6.66667 1.26675 6.66667 2.00008Z" fill="#5141A4"/>
</svg>
