<svg width="23" height="20" viewBox="0 0 23 20" fill="none" xmlns="http://www.w3.org/2000/svg">
<path d="M1.33333 12.6665H4C4.73333 12.6665 5.33333 12.0665 5.33333 11.3332V8.6665C5.33333 7.93317 4.73333 7.33317 4 7.33317H1.33333C0.6 7.33317 0 7.93317 0 8.6665V11.3332C0 12.0665 0.6 12.6665 1.33333 12.6665ZM1.33333 19.3332H4C4.73333 19.3332 5.33333 18.7332 5.33333 17.9998V15.3332C5.33333 14.5998 4.73333 13.9998 4 13.9998H1.33333C0.6 13.9998 0 14.5998 0 15.3332V17.9998C0 18.7332 0.6 19.3332 1.33333 19.3332ZM1.33333 5.99984H4C4.73333 5.99984 5.33333 5.39984 5.33333 4.6665V1.99984C5.33333 1.2665 4.73333 0.666504 4 0.666504H1.33333C0.6 0.666504 0 1.2665 0 1.99984V4.6665C0 5.39984 0.6 5.99984 1.33333 5.99984ZM8 12.6665H21.3333C22.0667 12.6665 22.6667 12.0665 22.6667 11.3332V8.6665C22.6667 7.93317 22.0667 7.33317 21.3333 7.33317H8C7.26667 7.33317 6.66667 7.93317 6.66667 8.6665V11.3332C6.66667 12.0665 7.26667 12.6665 8 12.6665ZM8 19.3332H21.3333C22.0667 19.3332 22.6667 18.7332 22.6667 17.9998V15.3332C22.6667 14.5998 22.0667 13.9998 21.3333 13.9998H8C7.26667 13.9998 6.66667 14.5998 6.66667 15.3332V17.9998C6.66667 18.7332 7.26667 19.3332 8 19.3332ZM6.66667 1.99984V4.6665C6.66667 5.39984 7.26667 5.99984 8 5.99984H21.3333C22.0667 5.99984 22.6667 5.39984 22.6667 4.6665V1.99984C22.6667 1.2665 22.0667 0.666504 21.3333 0.666504H8C7.26667 0.666504 6.66667 1.2665 6.66667 1.99984Z" fill="#BDC3BF"/>
</svg>
